<svg width="24" height="24" viewBox="0 0 24 24" fill="none" xmlns="http://www.w3.org/2000/svg">
<path fill-rule="evenodd" clip-rule="evenodd" d="M20.4101 6.80029L21.7201 8.51029V8.47029C21.8809 8.68615 21.9779 8.94275 22.0003 9.21099C22.0226 9.47922 21.9693 9.74835 21.8465 9.98783C21.7236 10.2273 21.5361 10.4276 21.3052 10.5659C21.0742 10.7042 20.8092 10.775 20.5401 10.7703H18.3401L17.1201 12.5403C16.989 12.7291 16.814 12.8832 16.6102 12.9894C16.4064 13.0957 16.1799 13.1509 15.9501 13.1503H15.7201C15.4527 13.1085 15.2023 12.9927 14.9973 12.8159C14.7923 12.6392 14.6408 12.4086 14.5601 12.1503L13.9101 10.0503L11.8501 9.44029C11.5917 9.35954 11.3612 9.2081 11.1844 9.00309C11.0077 8.79809 10.8919 8.54771 10.8501 8.28029C10.807 8.01507 10.8394 7.74307 10.9438 7.49546C11.0481 7.24785 11.2201 7.03465 11.4401 6.88029L13.2401 5.61029L13.1901 3.46029C13.1854 3.19117 13.2562 2.92612 13.3945 2.6952C13.5328 2.46429 13.733 2.27676 13.9725 2.1539C14.212 2.03103 14.4811 1.97775 14.7494 2.00009C15.0176 2.02243 15.2742 2.1195 15.4901 2.28029L17.2901 3.60029L19.2901 2.88029C19.5459 2.79551 19.8203 2.78372 20.0825 2.84623C20.3447 2.90874 20.5842 3.04308 20.7743 3.23418C20.9643 3.42528 21.0974 3.66557 21.1585 3.92807C21.2195 4.19058 21.2062 4.46492 21.1201 4.72029L20.4101 6.80029ZM17.6955 9.4511C17.9009 9.34493 18.1289 9.28977 18.3601 9.29029H20.4601L19.2101 7.62029C19.0694 7.43441 18.9767 7.21676 18.9401 6.98655C18.9034 6.75634 18.924 6.52065 19.0001 6.30029L19.6801 4.30029L17.6801 5.00029C17.4605 5.07772 17.2253 5.09997 16.9951 5.0651C16.7649 5.03022 16.5468 4.93928 16.3601 4.80029L14.7101 3.52029V5.60029C14.7139 5.83349 14.6603 6.06404 14.5539 6.27159C14.4475 6.47914 14.2917 6.65729 14.1001 6.79029L12.4001 8.00029L14.4301 8.65029C14.655 8.71711 14.8596 8.83898 15.0255 9.00487C15.1914 9.17076 15.3133 9.37541 15.3801 9.60029L16.0001 11.6003L17.1801 9.90029C17.3133 9.71135 17.4901 9.55728 17.6955 9.4511ZM12.0001 11.0003L11.0001 12.0003C10.8771 12.1378 10.8091 12.3158 10.8091 12.5003C10.8091 12.6848 10.8771 12.8628 11.0001 13.0003C11.1376 13.1233 11.3156 13.1913 11.5001 13.1913C11.6846 13.1913 11.8626 13.1233 12.0001 13.0003L13.0001 12.0003C13.0669 11.8603 13.0887 11.7031 13.0625 11.5502C13.0363 11.3974 12.9633 11.2564 12.8536 11.1467C12.744 11.0371 12.603 10.9641 12.4501 10.9379C12.2973 10.9116 12.14 10.9334 12.0001 11.0003ZM19.4997 13.5C19.7926 13.2071 20.2675 13.2071 20.5604 13.5L21.9704 14.91C22.2633 15.2029 22.2633 15.6778 21.9704 15.9707C21.6775 16.2636 21.2026 16.2636 20.9097 15.9707L19.4997 14.5607C19.2069 14.2678 19.2069 13.7929 19.4997 13.5ZM3.47007 19.4703L9.47007 13.4703C9.61225 13.3378 9.80029 13.2657 9.99459 13.2691C10.1889 13.2725 10.3743 13.3512 10.5117 13.4887C10.6491 13.6261 10.7278 13.8115 10.7312 14.0058C10.7347 14.2001 10.6626 14.3881 10.5301 14.5303L4.53007 20.5303C4.38945 20.6707 4.19882 20.7496 4.00007 20.7496C3.80132 20.7496 3.6107 20.6707 3.47007 20.5303C3.32962 20.3897 3.25073 20.199 3.25073 20.0003C3.25073 19.8015 3.32962 19.6109 3.47007 19.4703Z" fill="#2E3137"/>
<path d="M17 14.2803C16.8011 14.2803 16.6103 14.3594 16.4697 14.5C16.329 14.6407 16.25 14.8314 16.25 15.0303V17.0303C16.25 17.2293 16.329 17.42 16.4697 17.5607C16.6103 17.7013 16.8011 17.7803 17 17.7803C17.1989 17.7803 17.3897 17.7013 17.5303 17.5607C17.671 17.42 17.75 17.2293 17.75 17.0303V15.0003C17.7448 14.8058 17.6631 14.6212 17.5227 14.4864C17.3824 14.3517 17.1946 14.2776 17 14.2803Z" fill="#2E3137"/>
<path d="M7 7.75H9C9.19891 7.75 9.38968 7.67098 9.53033 7.53033C9.67098 7.38968 9.75 7.19891 9.75 7C9.75 6.80109 9.67098 6.61032 9.53033 6.46967C9.38968 6.32902 9.19891 6.25 9 6.25H7C6.80109 6.25 6.61032 6.32902 6.46967 6.46967C6.32902 6.61032 6.25 6.80109 6.25 7C6.25 7.19891 6.32902 7.38968 6.46967 7.53033C6.61032 7.67098 6.80109 7.75 7 7.75Z" fill="#2E3137"/>
<path d="M9.47 4.53C9.61062 4.67045 9.80125 4.74934 10 4.74934C10.1987 4.74934 10.3894 4.67045 10.53 4.53C10.6704 4.38937 10.7493 4.19875 10.7493 4C10.7493 3.80125 10.6704 3.61062 10.53 3.47L9.12 2.06C9.05134 1.98631 8.96854 1.92721 8.87654 1.88622C8.78454 1.84522 8.68522 1.82318 8.58452 1.82141C8.48382 1.81963 8.38379 1.83815 8.2904 1.87587C8.19701 1.9136 8.11218 1.96974 8.04096 2.04096C7.96974 2.11218 7.9136 2.19701 7.87587 2.2904C7.83815 2.38379 7.81963 2.48382 7.82141 2.58452C7.82318 2.68522 7.84522 2.78454 7.88622 2.87654C7.92721 2.96853 7.98631 3.05134 8.06 3.12L9.47 4.53Z" fill="#2E3137"/>
</svg>
