<svg width="40" height="40" viewBox="0 0 40 40" fill="none" xmlns="http://www.w3.org/2000/svg">
<path d="M6.66657 18.7496H32.0332L22.4832 9.21628C22.2521 8.97701 22.1229 8.65731 22.1229 8.32462C22.1229 7.99192 22.2521 7.67222 22.4832 7.43295C22.7176 7.19887 23.0353 7.06738 23.3666 7.06738C23.6978 7.06738 24.0155 7.19887 24.2499 7.43295L36.0832 19.2663C36.3144 19.5056 36.4436 19.8253 36.4436 20.1579C36.4436 20.4906 36.3144 20.8103 36.0832 21.0496L24.2499 32.8829C24.0155 33.117 23.6978 33.2485 23.3666 33.2485C23.0353 33.2485 22.7176 33.117 22.4832 32.8829C22.2521 32.6437 22.1229 32.324 22.1229 31.9913C22.1229 31.6586 22.2521 31.3389 22.4832 31.0996L32.3499 21.2496H6.66657C6.33505 21.2496 6.01711 21.1179 5.78269 20.8835C5.54827 20.6491 5.41657 20.3311 5.41657 19.9996C5.41657 19.6681 5.54827 19.3502 5.78269 19.1157C6.01711 18.8813 6.33505 18.7496 6.66657 18.7496Z" fill="#212121"/>
</svg>
